<mxfile host="app.diagrams.net" modified="2020-10-25T04:59:22.430Z" agent="5.0 (Windows NT 10.0; Win64; x64) AppleWebKit/537.36 (KHTML, like Gecko) Chrome/86.0.4240.111 Safari/537.36" etag="ljx8-G0JfN5AGtESyf4b" version="13.8.2" type="github">
  <diagram id="rilwGEl2th56RYfWzOHT" name="Page-1">
    <mxGraphModel dx="782" dy="381" grid="1" gridSize="10" guides="1" tooltips="1" connect="1" arrows="1" fold="1" page="1" pageScale="1" pageWidth="827" pageHeight="1169" math="0" shadow="0">
      <root>
        <mxCell id="0" />
        <mxCell id="1" parent="0" />
        <mxCell id="sMHR72d-Sa8R9-Ul_iFM-4" style="edgeStyle=orthogonalEdgeStyle;rounded=0;orthogonalLoop=1;jettySize=auto;html=1;entryX=0;entryY=0.5;entryDx=0;entryDy=0;" edge="1" parent="1" source="sMHR72d-Sa8R9-Ul_iFM-1" target="sMHR72d-Sa8R9-Ul_iFM-2">
          <mxGeometry relative="1" as="geometry" />
        </mxCell>
        <mxCell id="sMHR72d-Sa8R9-Ul_iFM-5" style="edgeStyle=orthogonalEdgeStyle;rounded=0;orthogonalLoop=1;jettySize=auto;html=1;entryX=0;entryY=0.5;entryDx=0;entryDy=0;" edge="1" parent="1" source="sMHR72d-Sa8R9-Ul_iFM-1" target="sMHR72d-Sa8R9-Ul_iFM-3">
          <mxGeometry relative="1" as="geometry">
            <mxPoint x="280" y="250" as="targetPoint" />
          </mxGeometry>
        </mxCell>
        <mxCell id="sMHR72d-Sa8R9-Ul_iFM-1" value="优先级" style="rounded=1;whiteSpace=wrap;html=1;fillColor=#f5f5f5;strokeColor=#666666;fontColor=#333333;" vertex="1" parent="1">
          <mxGeometry x="160" y="160" width="90" height="60" as="geometry" />
        </mxCell>
        <mxCell id="sMHR72d-Sa8R9-Ul_iFM-2" value="静态优先级" style="rounded=1;whiteSpace=wrap;html=1;fillColor=#dae8fc;strokeColor=#6c8ebf;" vertex="1" parent="1">
          <mxGeometry x="290" y="100" width="90" height="60" as="geometry" />
        </mxCell>
        <mxCell id="sMHR72d-Sa8R9-Ul_iFM-8" style="edgeStyle=orthogonalEdgeStyle;rounded=0;orthogonalLoop=1;jettySize=auto;html=1;entryX=0;entryY=0.5;entryDx=0;entryDy=0;" edge="1" parent="1" source="sMHR72d-Sa8R9-Ul_iFM-3" target="sMHR72d-Sa8R9-Ul_iFM-6">
          <mxGeometry relative="1" as="geometry" />
        </mxCell>
        <mxCell id="sMHR72d-Sa8R9-Ul_iFM-9" style="edgeStyle=orthogonalEdgeStyle;rounded=0;orthogonalLoop=1;jettySize=auto;html=1;entryX=0;entryY=0.5;entryDx=0;entryDy=0;" edge="1" parent="1" source="sMHR72d-Sa8R9-Ul_iFM-3" target="sMHR72d-Sa8R9-Ul_iFM-7">
          <mxGeometry relative="1" as="geometry" />
        </mxCell>
        <mxCell id="sMHR72d-Sa8R9-Ul_iFM-3" value="动态优先级" style="rounded=1;whiteSpace=wrap;html=1;fillColor=#fff2cc;strokeColor=#d6b656;gradientColor=#ffd966;" vertex="1" parent="1">
          <mxGeometry x="290" y="220" width="90" height="60" as="geometry" />
        </mxCell>
        <mxCell id="sMHR72d-Sa8R9-Ul_iFM-6" value="非抢占式" style="rounded=1;whiteSpace=wrap;html=1;fillColor=#fff2cc;strokeColor=#d6b656;" vertex="1" parent="1">
          <mxGeometry x="420" y="170" width="90" height="60" as="geometry" />
        </mxCell>
        <mxCell id="sMHR72d-Sa8R9-Ul_iFM-7" value="抢占式" style="rounded=1;whiteSpace=wrap;html=1;fillColor=#fff2cc;strokeColor=#d6b656;" vertex="1" parent="1">
          <mxGeometry x="420" y="260" width="90" height="60" as="geometry" />
        </mxCell>
      </root>
    </mxGraphModel>
  </diagram>
</mxfile>
